<svg xmlns="http://www.w3.org/2000/svg" xmlns:xlink="http://www.w3.org/1999/xlink" width="440" zoomAndPan="magnify" viewBox="0 0 330 77.999999" height="104" preserveAspectRatio="xMidYMid meet" version="1.2"><defs><clipPath id="a810b40656"><path d="M 103.464844 29 L 128 29 L 128 50.945312 L 103.464844 50.945312 Z M 103.464844 29 "/></clipPath><clipPath id="77172e98f2"><path d="M 127 18.695312 L 151.464844 18.695312 L 151.464844 40 L 127 40 Z M 127 18.695312 "/></clipPath></defs><g id="36e025bddc"><g clip-rule="nonzero" clip-path="url(#a810b40656)"><path style=" stroke:none;fill-rule:nonzero;fill:#095d40;fill-opacity:1;" d="M 119.582031 44.71875 L 119.582031 47.628906 L 106.386719 41.5 L 106.386719 39.136719 L 119.582031 33.007812 L 119.582031 35.921875 L 109.605469 40.292969 L 109.605469 40.347656 Z M 127.414062 29.773438 L 105.351562 29.773438 C 104.3125 29.773438 103.46875 30.617188 103.46875 31.65625 L 103.46875 48.980469 C 103.46875 50.023438 104.3125 50.867188 105.351562 50.867188 L 121.292969 50.867188 L 127.414062 29.773438 "/></g><g clip-rule="nonzero" clip-path="url(#77172e98f2)"><path style=" stroke:none;fill-rule:nonzero;fill:#16a637;fill-opacity:1;" d="M 148.40625 30.519531 L 135.214844 36.566406 L 135.214844 33.652344 L 145.410156 29.285156 L 145.410156 29.230469 L 135.214844 24.859375 L 135.214844 21.945312 L 148.40625 27.992188 Z M 133.539062 18.707031 L 127.414062 39.804688 L 149.441406 39.804688 C 150.484375 39.804688 151.328125 38.960938 151.328125 37.917969 L 151.328125 20.59375 C 151.328125 19.554688 150.484375 18.707031 149.441406 18.707031 L 133.539062 18.707031 "/></g><g style="fill:#ffffff;fill-opacity:1;"><g transform="translate(172.264355, 34.036419)"><path style="stroke:none" d="M 0.875 0 L 0.875 -8.921875 L 3.828125 -8.921875 C 4.441406 -8.921875 5.019531 -8.804688 5.5625 -8.578125 C 6.101562 -8.347656 6.578125 -8.03125 6.984375 -7.625 C 7.390625 -7.21875 7.707031 -6.742188 7.9375 -6.203125 C 8.175781 -5.660156 8.296875 -5.082031 8.296875 -4.46875 C 8.296875 -3.851562 8.175781 -3.273438 7.9375 -2.734375 C 7.707031 -2.191406 7.390625 -1.71875 6.984375 -1.3125 C 6.578125 -0.90625 6.101562 -0.582031 5.5625 -0.34375 C 5.019531 -0.113281 4.441406 0 3.828125 0 Z M 2.84375 -1.734375 L 3.8125 -1.734375 C 4.289062 -1.734375 4.71875 -1.851562 5.09375 -2.09375 C 5.46875 -2.332031 5.765625 -2.65625 5.984375 -3.0625 C 6.210938 -3.476562 6.328125 -3.945312 6.328125 -4.46875 C 6.328125 -4.976562 6.210938 -5.4375 5.984375 -5.84375 C 5.765625 -6.257812 5.46875 -6.585938 5.09375 -6.828125 C 4.71875 -7.066406 4.289062 -7.1875 3.8125 -7.1875 L 2.84375 -7.1875 Z M 2.84375 -1.734375 "/></g></g><g style="fill:#ffffff;fill-opacity:1;"><g transform="translate(181.628429, 34.036419)"><path style="stroke:none" d="M 6.328125 -7.203125 L 2.921875 -7.203125 L 2.921875 -5.328125 L 5.828125 -5.328125 L 5.828125 -3.609375 L 2.921875 -3.609375 L 2.921875 -1.71875 L 6.328125 -1.71875 L 6.328125 0 L 0.953125 0 L 0.953125 -8.921875 L 6.328125 -8.921875 Z M 6.328125 -7.203125 "/></g></g><g style="fill:#ffffff;fill-opacity:1;"><g transform="translate(189.087557, 34.036419)"><path style="stroke:none" d="M 6.25 -8.921875 L 8.4375 -8.921875 L 5.21875 0 L 3.015625 0 L -0.1875 -8.921875 L 2 -8.921875 L 4.125 -2.546875 Z M 6.25 -8.921875 "/></g></g><g style="fill:#ffffff;fill-opacity:1;"><g transform="translate(197.856334, 34.036419)"><path style="stroke:none" d="M 6.328125 -7.203125 L 2.921875 -7.203125 L 2.921875 -5.328125 L 5.828125 -5.328125 L 5.828125 -3.609375 L 2.921875 -3.609375 L 2.921875 -1.71875 L 6.328125 -1.71875 L 6.328125 0 L 0.953125 0 L 0.953125 -8.921875 L 6.328125 -8.921875 Z M 6.328125 -7.203125 "/></g></g><g style="fill:#ffffff;fill-opacity:1;"><g transform="translate(205.315463, 34.036419)"><path style="stroke:none" d="M 2.84375 -1.734375 L 5.796875 -1.734375 L 5.796875 0 L 0.875 0 L 0.875 -8.921875 L 2.84375 -8.921875 Z M 2.84375 -1.734375 "/></g></g><g style="fill:#ffffff;fill-opacity:1;"><g transform="translate(211.67329, 34.036419)"><path style="stroke:none" d="M 5.140625 0.125 C 4.503906 0.125 3.910156 0.00390625 3.359375 -0.234375 C 2.804688 -0.472656 2.316406 -0.800781 1.890625 -1.21875 C 1.472656 -1.644531 1.144531 -2.132812 0.90625 -2.6875 C 0.664062 -3.238281 0.546875 -3.832031 0.546875 -4.46875 C 0.546875 -5.101562 0.664062 -5.691406 0.90625 -6.234375 C 1.144531 -6.785156 1.472656 -7.269531 1.890625 -7.6875 C 2.316406 -8.113281 2.804688 -8.445312 3.359375 -8.6875 C 3.910156 -8.925781 4.503906 -9.046875 5.140625 -9.046875 C 5.773438 -9.046875 6.367188 -8.925781 6.921875 -8.6875 C 7.472656 -8.445312 7.957031 -8.113281 8.375 -7.6875 C 8.789062 -7.269531 9.117188 -6.785156 9.359375 -6.234375 C 9.597656 -5.691406 9.71875 -5.101562 9.71875 -4.46875 C 9.71875 -3.832031 9.597656 -3.238281 9.359375 -2.6875 C 9.117188 -2.132812 8.789062 -1.644531 8.375 -1.21875 C 7.957031 -0.800781 7.472656 -0.472656 6.921875 -0.234375 C 6.367188 0.00390625 5.773438 0.125 5.140625 0.125 Z M 5.140625 -1.796875 C 5.640625 -1.796875 6.085938 -1.910156 6.484375 -2.140625 C 6.890625 -2.378906 7.207031 -2.695312 7.4375 -3.09375 C 7.675781 -3.5 7.796875 -3.957031 7.796875 -4.46875 C 7.796875 -4.96875 7.675781 -5.414062 7.4375 -5.8125 C 7.207031 -6.21875 6.890625 -6.535156 6.484375 -6.765625 C 6.085938 -7.003906 5.640625 -7.125 5.140625 -7.125 C 4.640625 -7.125 4.1875 -7.003906 3.78125 -6.765625 C 3.382812 -6.535156 3.066406 -6.21875 2.828125 -5.8125 C 2.597656 -5.414062 2.484375 -4.96875 2.484375 -4.46875 C 2.484375 -3.957031 2.597656 -3.5 2.828125 -3.09375 C 3.066406 -2.695312 3.382812 -2.378906 3.78125 -2.140625 C 4.1875 -1.910156 4.640625 -1.796875 5.140625 -1.796875 Z M 5.140625 -1.796875 "/></g></g><g style="fill:#ffffff;fill-opacity:1;"><g transform="translate(222.480954, 34.036419)"><path style="stroke:none" d="M 4.671875 -8.921875 C 5.179688 -8.921875 5.632812 -8.800781 6.03125 -8.5625 C 6.4375 -8.320312 6.753906 -8 6.984375 -7.59375 C 7.222656 -7.1875 7.34375 -6.734375 7.34375 -6.234375 C 7.34375 -5.734375 7.222656 -5.285156 6.984375 -4.890625 C 6.753906 -4.492188 6.4375 -4.179688 6.03125 -3.953125 C 5.632812 -3.722656 5.179688 -3.609375 4.671875 -3.609375 L 2.84375 -3.609375 L 2.84375 0 L 0.875 0 L 0.875 -8.921875 Z M 4.359375 -5.234375 C 4.679688 -5.234375 4.945312 -5.320312 5.15625 -5.5 C 5.363281 -5.6875 5.46875 -5.925781 5.46875 -6.21875 C 5.46875 -6.507812 5.363281 -6.742188 5.15625 -6.921875 C 4.945312 -7.109375 4.679688 -7.203125 4.359375 -7.203125 L 2.84375 -7.203125 L 2.84375 -5.234375 Z M 4.359375 -5.234375 "/></g></g><g style="fill:#ffffff;fill-opacity:1;"><g transform="translate(230.401433, 34.036419)"><path style="stroke:none" d="M 6.328125 -7.203125 L 2.921875 -7.203125 L 2.921875 -5.328125 L 5.828125 -5.328125 L 5.828125 -3.609375 L 2.921875 -3.609375 L 2.921875 -1.71875 L 6.328125 -1.71875 L 6.328125 0 L 0.953125 0 L 0.953125 -8.921875 L 6.328125 -8.921875 Z M 6.328125 -7.203125 "/></g></g><g style="fill:#ffffff;fill-opacity:1;"><g transform="translate(237.860561, 34.036419)"><path style="stroke:none" d="M 5.53125 -3.671875 L 8.03125 0 L 5.828125 0 L 3.625 -3.453125 L 2.84375 -3.453125 L 2.84375 0 L 0.875 0 L 0.875 -8.921875 L 4.671875 -8.921875 C 5.191406 -8.921875 5.648438 -8.800781 6.046875 -8.5625 C 6.441406 -8.320312 6.753906 -7.992188 6.984375 -7.578125 C 7.222656 -7.160156 7.34375 -6.695312 7.34375 -6.1875 C 7.34375 -5.582031 7.171875 -5.050781 6.828125 -4.59375 C 6.492188 -4.144531 6.0625 -3.835938 5.53125 -3.671875 Z M 4.375 -5.078125 C 4.695312 -5.078125 4.957031 -5.175781 5.15625 -5.375 C 5.363281 -5.570312 5.46875 -5.820312 5.46875 -6.125 C 5.46875 -6.4375 5.363281 -6.691406 5.15625 -6.890625 C 4.957031 -7.085938 4.695312 -7.1875 4.375 -7.1875 L 2.84375 -7.1875 L 2.84375 -5.078125 Z M 4.375 -5.078125 "/></g></g><g style="fill:#ffffff;fill-opacity:1;"><g transform="translate(180.149864, 44.433784)"><path style="stroke:none" d="M 2.78125 0 L 2.46875 -0.890625 L 0.765625 -0.890625 L 0.453125 0 L 0 0 L 1.390625 -3.828125 L 1.84375 -3.828125 L 3.21875 0 Z M 0.890625 -1.28125 L 2.328125 -1.28125 L 1.609375 -3.34375 Z M 0.890625 -1.28125 "/></g></g><g style="fill:#ffffff;fill-opacity:1;"><g transform="translate(185.080897, 44.433784)"><path style="stroke:none" d="M 3.21875 -3.828125 L 3.625 -3.828125 L 3.625 0 L 3.234375 0 L 0.875 -3.15625 L 0.875 0 L 0.46875 0 L 0.46875 -3.828125 L 0.84375 -3.828125 L 3.21875 -0.6875 Z M 3.21875 -3.828125 "/></g></g><g style="fill:#ffffff;fill-opacity:1;"><g transform="translate(190.873102, 44.433784)"><path style="stroke:none" d="M 2.75 0 L 1.15625 -1.875 L 0.875 -1.875 L 0.875 0 L 0.46875 0 L 0.46875 -3.828125 L 0.875 -3.828125 L 0.875 -2.265625 L 1.140625 -2.265625 L 2.6875 -3.828125 L 3.25 -3.828125 L 1.5 -2.0625 L 3.328125 0 Z M 2.75 0 "/></g></g><g style="fill:#ffffff;fill-opacity:1;"><g transform="translate(195.855169, 44.433784)"><path style="stroke:none" d="M 0.5 0 L 0.5 -3.828125 L 0.90625 -3.828125 L 0.90625 0 Z M 0.5 0 "/></g></g><g style="fill:#ffffff;fill-opacity:1;"><g transform="translate(198.961794, 44.433784)"><path style="stroke:none" d="M 2.59375 -3.828125 L 2.59375 -3.421875 L 1.53125 -3.421875 L 1.53125 0 L 1.125 0 L 1.125 -3.421875 L 0.0625 -3.421875 L 0.0625 -3.828125 Z M 2.59375 -3.828125 "/></g></g><g style="fill:#ffffff;fill-opacity:1;"><g transform="translate(203.312336, 44.433784)"><path style="stroke:none" d=""/></g></g><g style="fill:#ffffff;fill-opacity:1;"><g transform="translate(206.559301, 44.433784)"><path style="stroke:none" d="M 1.84375 -3.828125 C 2.039062 -3.828125 2.21875 -3.78125 2.375 -3.6875 C 2.539062 -3.59375 2.671875 -3.460938 2.765625 -3.296875 C 2.859375 -3.140625 2.90625 -2.960938 2.90625 -2.765625 C 2.90625 -2.566406 2.859375 -2.382812 2.765625 -2.21875 C 2.671875 -2.0625 2.539062 -1.9375 2.375 -1.84375 C 2.21875 -1.75 2.039062 -1.703125 1.84375 -1.703125 L 0.875 -1.703125 L 0.875 0 L 0.46875 0 L 0.46875 -3.828125 Z M 1.796875 -2.09375 C 1.992188 -2.09375 2.160156 -2.148438 2.296875 -2.265625 C 2.429688 -2.390625 2.5 -2.554688 2.5 -2.765625 C 2.5 -2.960938 2.429688 -3.125 2.296875 -3.25 C 2.160156 -3.375 1.992188 -3.4375 1.796875 -3.4375 L 0.875 -3.4375 L 0.875 -2.09375 Z M 1.796875 -2.09375 "/></g></g><g style="fill:#ffffff;fill-opacity:1;"><g transform="translate(211.279824, 44.433784)"><path style="stroke:none" d="M 2.78125 0 L 2.46875 -0.890625 L 0.765625 -0.890625 L 0.453125 0 L 0 0 L 1.390625 -3.828125 L 1.84375 -3.828125 L 3.21875 0 Z M 0.890625 -1.28125 L 2.328125 -1.28125 L 1.609375 -3.34375 Z M 0.890625 -1.28125 "/></g></g><g style="fill:#ffffff;fill-opacity:1;"><g transform="translate(216.210858, 44.433784)"><path style="stroke:none" d="M 2.015625 -1.75 L 3.15625 0 L 2.6875 0 L 1.59375 -1.734375 L 0.875 -1.734375 L 0.875 0 L 0.46875 0 L 0.46875 -3.828125 L 1.84375 -3.828125 C 2.039062 -3.828125 2.21875 -3.78125 2.375 -3.6875 C 2.539062 -3.59375 2.671875 -3.460938 2.765625 -3.296875 C 2.859375 -3.140625 2.90625 -2.960938 2.90625 -2.765625 C 2.90625 -2.585938 2.863281 -2.425781 2.78125 -2.28125 C 2.707031 -2.132812 2.601562 -2.015625 2.46875 -1.921875 C 2.34375 -1.828125 2.191406 -1.769531 2.015625 -1.75 Z M 0.875 -2.125 L 1.8125 -2.125 C 2.007812 -2.125 2.171875 -2.179688 2.296875 -2.296875 C 2.429688 -2.421875 2.5 -2.578125 2.5 -2.765625 C 2.5 -2.960938 2.429688 -3.117188 2.296875 -3.234375 C 2.160156 -3.359375 2 -3.421875 1.8125 -3.421875 L 0.875 -3.421875 Z M 0.875 -2.125 "/></g></g><g style="fill:#ffffff;fill-opacity:1;"><g transform="translate(221.122755, 44.433784)"><path style="stroke:none" d="M 0.5 0 L 0.5 -3.828125 L 0.90625 -3.828125 L 0.90625 0 Z M 0.5 0 "/></g></g><g style="fill:#ffffff;fill-opacity:1;"><g transform="translate(224.22938, 44.433784)"><path style="stroke:none" d="M 2.984375 -3.828125 L 3.390625 -3.828125 L 3.390625 0 L 2.984375 0 L 2.984375 -1.71875 L 0.875 -1.71875 L 0.875 0 L 0.46875 0 L 0.46875 -3.828125 L 0.875 -3.828125 L 0.875 -2.125 L 2.984375 -2.125 Z M 2.984375 -3.828125 "/></g></g><g style="fill:#ffffff;fill-opacity:1;"><g transform="translate(229.798319, 44.433784)"><path style="stroke:none" d="M 2.78125 0 L 2.46875 -0.890625 L 0.765625 -0.890625 L 0.453125 0 L 0 0 L 1.390625 -3.828125 L 1.84375 -3.828125 L 3.21875 0 Z M 0.890625 -1.28125 L 2.328125 -1.28125 L 1.609375 -3.34375 Z M 0.890625 -1.28125 "/></g></g><g style="fill:#ffffff;fill-opacity:1;"><g transform="translate(234.729352, 44.433784)"><path style="stroke:none" d="M 2.015625 -1.75 L 3.15625 0 L 2.6875 0 L 1.59375 -1.734375 L 0.875 -1.734375 L 0.875 0 L 0.46875 0 L 0.46875 -3.828125 L 1.84375 -3.828125 C 2.039062 -3.828125 2.21875 -3.78125 2.375 -3.6875 C 2.539062 -3.59375 2.671875 -3.460938 2.765625 -3.296875 C 2.859375 -3.140625 2.90625 -2.960938 2.90625 -2.765625 C 2.90625 -2.585938 2.863281 -2.425781 2.78125 -2.28125 C 2.707031 -2.132812 2.601562 -2.015625 2.46875 -1.921875 C 2.34375 -1.828125 2.191406 -1.769531 2.015625 -1.75 Z M 0.875 -2.125 L 1.8125 -2.125 C 2.007812 -2.125 2.171875 -2.179688 2.296875 -2.296875 C 2.429688 -2.421875 2.5 -2.578125 2.5 -2.765625 C 2.5 -2.960938 2.429688 -3.117188 2.296875 -3.234375 C 2.160156 -3.359375 2 -3.421875 1.8125 -3.421875 L 0.875 -3.421875 Z M 0.875 -2.125 "/></g></g></g></svg>